<mxfile host="app.diagrams.net" modified="2023-03-31T21:54:43.110Z" agent="Mozilla/5.0 (Windows NT 10.0; Win64; x64) AppleWebKit/537.36 (KHTML, like Gecko) Chrome/111.0.0.0 Safari/537.36" version="21.1.2" etag="TTCGD2hfMrTzE7n_XZfe" type="github">
  <diagram name="Strona-1" id="q5k802kG7WDNZ4SR6vnB">
    <mxGraphModel>
      <root>
        <mxCell id="0" />
        <mxCell id="1" parent="0" />
      </root>
    </mxGraphModel>
  </diagram>
</mxfile>
